<svg width="27" height="27" viewBox="0 0 27 27" fill="none" xmlns="http://www.w3.org/2000/svg">
<path d="M13.783 25.7836C10.4993 25.7836 10.1122 25.7661 8.8308 25.7093C7.83151 25.676 6.84516 25.4704 5.9142 25.1012C4.30348 24.4666 3.02983 23.1767 2.4036 21.5458C2.05295 20.5999 1.86382 19.6005 1.84431 18.5904C1.76956 17.2958 1.76956 16.8715 1.76956 13.5728C1.76956 10.239 1.78691 9.84983 1.84431 8.55929C1.86425 7.55054 2.05337 6.55255 2.4036 5.60794C3.02915 3.97487 4.30487 2.68385 5.91821 2.05119C6.85078 1.6947 7.83682 1.50273 8.83347 1.48362C10.1082 1.41064 10.5274 1.41064 13.783 1.41064C17.0934 1.41064 17.4738 1.42821 18.7352 1.48362C19.7345 1.5029 20.7231 1.69485 21.6585 2.05119C23.2714 2.68457 24.5468 3.97534 25.1731 5.60794C25.5297 6.56631 25.7198 7.5799 25.7351 8.60389C25.8098 9.89848 25.8098 10.3215 25.8098 13.6188C25.8098 16.916 25.7911 17.3485 25.7351 18.6282C25.7152 19.6393 25.5256 20.6396 25.1744 21.5863C24.5466 23.2184 23.271 24.5087 21.6585 25.1431C20.7244 25.4974 19.7378 25.6888 18.7406 25.7093C17.4658 25.7836 17.048 25.7836 13.783 25.7836ZM13.7376 3.54983C10.4726 3.54983 10.1336 3.56605 8.85883 3.62416C8.09796 3.63436 7.34444 3.77651 6.631 4.04443C5.5775 4.45255 4.74386 5.29307 4.33644 6.35794C4.06975 7.08807 3.92932 7.85926 3.9213 8.63767C3.85056 9.94713 3.85056 10.2904 3.85056 13.5728C3.85056 16.816 3.86257 17.2093 3.9213 18.5106C3.93325 19.2812 4.0736 20.0442 4.33644 20.7674C4.74446 21.8316 5.57795 22.6715 6.631 23.0796C7.34396 23.3493 8.09778 23.4915 8.85883 23.4998C10.1509 23.5755 10.4913 23.5755 13.7376 23.5755C17.012 23.5755 17.351 23.5593 18.6151 23.4998C19.3765 23.4905 20.1306 23.3483 20.8443 23.0796C21.8914 22.6679 22.7196 21.83 23.1268 20.7701C23.393 20.0394 23.5334 19.2678 23.5419 18.489H23.5566C23.614 17.1971 23.614 16.8525 23.614 13.5512C23.614 10.2498 23.5993 9.90254 23.5419 8.612C23.53 7.84233 23.3896 7.08025 23.1268 6.35794C22.7205 5.29655 21.8922 4.45699 20.8443 4.04443C20.1307 3.77516 19.3765 3.63297 18.6151 3.62416C17.3243 3.54983 16.9866 3.54983 13.7376 3.54983ZM13.783 19.8147C11.2869 19.8163 9.03559 18.2954 8.07911 15.9613C7.12263 13.6271 7.64935 10.9395 9.41363 9.15181C11.1779 7.36415 13.8322 6.82858 16.1387 7.79488C18.4451 8.76118 19.9494 11.039 19.9499 13.566C19.9462 17.0134 17.1882 19.808 13.783 19.8147ZM13.783 9.50929C11.5714 9.50929 9.77853 11.3244 9.77853 13.5633C9.77853 15.8023 11.5714 17.6174 13.783 17.6174C15.9946 17.6174 17.7875 15.8023 17.7875 13.5633C17.7824 11.3265 15.9925 9.51449 13.783 9.50929ZM20.1902 8.54578C19.3965 8.5428 18.7551 7.88982 18.7566 7.08633C18.7581 6.28285 19.4019 5.63228 20.1955 5.63228C20.9892 5.63228 21.633 6.28283 21.6345 7.08632C21.6348 7.47397 21.4827 7.84581 21.2117 8.11967C20.9407 8.39353 20.5731 8.54686 20.1902 8.54578Z" fill="#386F4C"/>
</svg>
