<svg width="27" height="27" viewBox="0 0 27 27" fill="none" xmlns="http://www.w3.org/2000/svg">
<path d="M9.28466 2.20138C9.20337 2.15168 9.13793 2.07984 9.096 1.99428C9.05407 1.90872 9.03739 1.81299 9.04791 1.71829C9.05843 1.62359 9.09572 1.53385 9.15541 1.45959C9.2151 1.38532 9.29471 1.3296 9.38493 1.29895C11.2117 0.666989 13.1565 0.45045 15.0775 0.665106C16.9986 0.879762 18.8476 1.52021 20.4898 2.53979C20.5509 2.57626 20.6036 2.62532 20.6443 2.6837C20.6849 2.74208 20.7127 2.80846 20.7258 2.87841C20.7388 2.94836 20.7368 3.02028 20.7199 3.0894C20.703 3.15852 20.6716 3.22325 20.6277 3.27928C19.1705 5.12851 17.3914 6.69952 15.3761 7.91678C13.7451 5.62622 11.6744 3.68331 9.28466 2.20138ZM13.5837 8.85681C11.7487 6.3635 9.3415 4.34749 6.56483 2.97847C6.48285 2.94133 6.39287 2.92532 6.3031 2.93189C6.21334 2.93845 6.12665 2.9674 6.05094 3.01607C3.80431 4.63421 2.12465 6.91908 1.25051 9.54617C1.22983 9.61285 1.2233 9.68311 1.23134 9.75246C1.23939 9.82181 1.26183 9.88872 1.29722 9.94889C1.33262 10.0091 1.3802 10.0612 1.4369 10.1019C1.49361 10.1426 1.55819 10.1711 1.62652 10.1854C2.93629 10.468 4.27235 10.6109 5.61226 10.6115C8.3656 10.615 11.0864 10.0161 13.5837 8.85681ZM26.5938 12.2033C26.2732 9.29606 24.9841 6.5811 22.9339 4.49506C22.8833 4.44576 22.8231 4.40742 22.757 4.38245C22.6908 4.35749 22.6203 4.34642 22.5497 4.34995C22.4791 4.35348 22.4101 4.37152 22.3468 4.40296C22.2835 4.4344 22.2274 4.47855 22.1819 4.53266C20.597 6.55534 18.6558 8.2714 16.454 9.5963C17.1408 10.7881 17.7116 12.043 18.1586 13.3439C19.9524 12.8588 21.8027 12.6144 23.6609 12.6169C24.4566 12.6188 25.2517 12.6648 26.0423 12.7548C26.1167 12.7627 26.1918 12.7539 26.2623 12.7289C26.3328 12.704 26.3969 12.6636 26.4497 12.6108C26.5026 12.5579 26.543 12.4939 26.5679 12.4234C26.5928 12.3529 26.6017 12.2777 26.5938 12.2033ZM18.71 15.2741C19.0783 16.8561 19.2633 18.4753 19.2615 20.0996C19.2606 21.6513 19.0883 23.1982 18.7477 24.712C18.7253 24.8051 18.7301 24.9027 18.7614 24.9931C18.7928 25.0836 18.8494 25.1632 18.9245 25.2225C18.9996 25.2818 19.0902 25.3184 19.1855 25.3279C19.2807 25.3374 19.3767 25.3194 19.4621 25.276C21.364 24.3248 23.0045 22.9231 24.2409 21.193C25.4774 19.4629 26.2722 17.4568 26.5562 15.3493C26.565 15.2834 26.5605 15.2164 26.5431 15.1522C26.5258 15.088 26.4958 15.0279 26.455 14.9754C26.4141 14.9229 26.3633 14.8791 26.3053 14.8465C26.2474 14.8138 26.1836 14.793 26.1175 14.7853C25.3034 14.674 24.4825 14.6196 23.6609 14.6223C21.9891 14.6203 20.3244 14.8394 18.71 15.2741ZM16.2409 13.9706C15.8437 12.7829 15.3228 11.6402 14.6867 10.5614C11.8541 11.9179 8.75289 12.6204 5.61226 12.6169C4.14194 12.6161 2.67578 12.4607 1.23798 12.1532C1.16833 12.1387 1.09641 12.1393 1.02698 12.1548C0.957561 12.1702 0.892228 12.2003 0.835324 12.243C0.778421 12.2857 0.73125 12.34 0.696945 12.4023C0.66264 12.4646 0.641987 12.5335 0.636357 12.6044C0.611289 12.9386 0.598756 13.2771 0.598756 13.6196C0.59812 15.4043 0.965035 17.17 1.67664 18.8067C2.38824 20.4434 3.42928 21.916 4.7349 23.1328C4.7887 23.1844 4.85362 23.2231 4.92467 23.2458C4.99573 23.2685 5.07103 23.2747 5.14483 23.2638C5.21863 23.2529 5.28895 23.2253 5.35042 23.183C5.41189 23.1407 5.46287 23.085 5.49946 23.02C7.94501 18.8684 11.7344 15.6759 16.2409 13.9706ZM7.07871 24.2984C7.04527 24.3559 7.0236 24.4194 7.01495 24.4854C7.00631 24.5513 7.01087 24.6183 7.02837 24.6825C7.04586 24.7466 7.07595 24.8066 7.11687 24.8591C7.15779 24.9115 7.20873 24.9552 7.26672 24.9878C9.20922 26.0847 11.403 26.6591 13.6339 26.6548C14.3946 26.6581 15.1541 26.591 15.9025 26.4542C15.9891 26.4398 16.0701 26.4018 16.1364 26.3443C16.2028 26.2868 16.252 26.212 16.2785 26.1283C16.9286 24.1849 17.2588 22.1489 17.2561 20.0996C17.2554 18.6873 17.0999 17.2792 16.7924 15.9008C12.6868 17.5024 9.25701 20.4675 7.07871 24.2984Z" fill="#386F4C"/>
</svg>
