<svg width="27" height="27" viewBox="0 0 27 27" fill="none" xmlns="http://www.w3.org/2000/svg">
<path fill-rule="evenodd" clip-rule="evenodd" d="M7.10817 4.69766C7.10817 6.0464 6.08121 7.13791 4.47522 7.13791C2.93181 7.13791 1.90485 6.0464 1.93663 4.69766C1.90485 3.28336 2.93178 2.22363 4.50599 2.22363C6.08118 2.22363 7.07738 3.28336 7.10817 4.69766ZM2.06575 24.7759V9.06568H6.94825V24.7749H2.06575V24.7759Z" fill="#386F4C"/>
<path fill-rule="evenodd" clip-rule="evenodd" d="M10.8618 14.0788C10.8618 12.1192 10.7972 10.4487 10.7327 9.06718H14.9736L15.199 11.2194H15.2954C15.938 10.2233 17.544 8.7146 20.1461 8.7146C23.3581 8.7146 25.7676 10.8351 25.7676 15.4593V24.7774H20.885V16.0711C20.885 14.046 20.1789 12.6655 18.412 12.6655C17.0623 12.6655 16.2598 13.5971 15.939 14.4959C15.8099 14.8177 15.7463 15.2666 15.7463 15.7175V24.7774H10.8638V14.0788H10.8618Z" fill="#386F4C"/>
</svg>
