<svg width="57" height="58" viewBox="0 0 57 58" fill="none" xmlns="http://www.w3.org/2000/svg">
<path d="M24.2847 17.2014C24.2034 17.1517 24.1379 17.0798 24.096 16.9943C24.0541 16.9087 24.0374 16.813 24.0479 16.7183C24.0584 16.6236 24.0957 16.5339 24.1554 16.4596C24.2151 16.3853 24.2947 16.3296 24.3849 16.2989C26.2117 15.667 28.1565 15.4505 30.0775 15.6651C31.9986 15.8798 33.8476 16.5202 35.4898 17.5398C35.5509 17.5763 35.6036 17.6253 35.6443 17.6837C35.6849 17.7421 35.7127 17.8085 35.7258 17.8784C35.7388 17.9484 35.7368 18.0203 35.7199 18.0894C35.703 18.1585 35.6716 18.2232 35.6277 18.2793C34.1705 20.1285 32.3914 21.6995 30.3761 22.9168C28.7451 20.6262 26.6744 18.6833 24.2847 17.2014ZM28.5837 23.8568C26.7487 21.3635 24.3415 19.3475 21.5648 17.9785C21.4828 17.9413 21.3929 17.9253 21.3031 17.9319C21.2133 17.9385 21.1266 17.9674 21.0509 18.0161C18.8043 19.6342 17.1246 21.9191 16.2505 24.5462C16.2298 24.6128 16.2233 24.6831 16.2313 24.7525C16.2394 24.8218 16.2618 24.8887 16.2972 24.9489C16.3326 25.0091 16.3802 25.0612 16.4369 25.1019C16.4936 25.1426 16.5582 25.1711 16.6265 25.1854C17.9363 25.468 19.2723 25.6109 20.6123 25.6115C23.3656 25.615 26.0864 25.0161 28.5837 23.8568ZM41.5938 27.2033C41.2732 24.2961 39.9841 21.5811 37.9339 19.4951C37.8833 19.4458 37.8231 19.4074 37.757 19.3825C37.6908 19.3575 37.6203 19.3464 37.5497 19.3499C37.4791 19.3535 37.4101 19.3715 37.3468 19.403C37.2835 19.4344 37.2274 19.4786 37.1819 19.5327C35.597 21.5553 33.6558 23.2714 31.454 24.5963C32.1408 25.7881 32.7116 27.043 33.1586 28.3439C34.9524 27.8588 36.8027 27.6144 38.6609 27.6169C39.4566 27.6188 40.2517 27.6648 41.0423 27.7548C41.1167 27.7627 41.1918 27.7539 41.2623 27.7289C41.3328 27.704 41.3969 27.6636 41.4497 27.6108C41.5026 27.5579 41.543 27.4939 41.5679 27.4234C41.5928 27.3529 41.6017 27.2777 41.5938 27.2033ZM33.71 30.2741C34.0783 31.8561 34.2633 33.4753 34.2615 35.0996C34.2606 36.6513 34.0883 38.1982 33.7477 39.712C33.7253 39.8051 33.7301 39.9027 33.7614 39.9931C33.7928 40.0836 33.8494 40.1632 33.9245 40.2225C33.9996 40.2818 34.0902 40.3184 34.1855 40.3279C34.2807 40.3374 34.3767 40.3194 34.4621 40.276C36.364 39.3248 38.0045 37.9231 39.2409 36.193C40.4774 34.4629 41.2722 32.4568 41.5562 30.3493C41.565 30.2834 41.5605 30.2164 41.5431 30.1522C41.5258 30.088 41.4958 30.0279 41.455 29.9754C41.4141 29.9229 41.3633 29.8791 41.3053 29.8465C41.2474 29.8138 41.1836 29.793 41.1175 29.7853C40.3034 29.674 39.4825 29.6196 38.6609 29.6223C36.9891 29.6203 35.3244 29.8394 33.71 30.2741ZM31.2409 28.9706C30.8437 27.7829 30.3228 26.6402 29.6867 25.5614C26.8541 26.9179 23.7529 27.6204 20.6123 27.6169C19.1419 27.6161 17.6758 27.4607 16.238 27.1532C16.1683 27.1387 16.0964 27.1393 16.027 27.1548C15.9576 27.1702 15.8922 27.2003 15.8353 27.243C15.7784 27.2857 15.7313 27.34 15.6969 27.4023C15.6626 27.4646 15.642 27.5335 15.6364 27.6044C15.6113 27.9386 15.5988 28.2771 15.5988 28.6196C15.5981 30.4043 15.965 32.17 16.6766 33.8067C17.3882 35.4434 18.4293 36.916 19.7349 38.1328C19.7887 38.1844 19.8536 38.2231 19.9247 38.2458C19.9957 38.2685 20.071 38.2747 20.1448 38.2638C20.2186 38.2529 20.289 38.2253 20.3504 38.183C20.4119 38.1407 20.4629 38.085 20.4995 38.02C22.945 33.8684 26.7344 30.6759 31.2409 28.9706ZM22.0787 39.2984C22.0453 39.3559 22.0236 39.4194 22.015 39.4854C22.0063 39.5513 22.0109 39.6183 22.0284 39.6825C22.0459 39.7466 22.0759 39.8066 22.1169 39.8591C22.1578 39.9115 22.2087 39.9552 22.2667 39.9878C24.2092 41.0847 26.403 41.6591 28.6339 41.6548C29.3946 41.6581 30.1541 41.591 30.9025 41.4542C30.9891 41.4398 31.0701 41.4018 31.1364 41.3443C31.2028 41.2868 31.252 41.212 31.2785 41.1283C31.9286 39.1849 32.2588 37.1489 32.2561 35.0996C32.2554 33.6873 32.0999 32.2792 31.7924 30.9008C27.6868 32.5024 24.257 35.4675 22.0787 39.2984Z" fill="#386F4C"/>
</svg>
