<?xml version="1.0" encoding="UTF-8"?>
<svg id="Layer_2" data-name="Layer 2" xmlns="http://www.w3.org/2000/svg" viewBox="0 0 495.42 495.42">
  <defs>
    <style>
      .cls-1 {
        fill: #f3f0cb;
      }

      .cls-2 {
        fill: #a79f19;
      }

      .cls-3 {
        fill: #386f4c;
      }
    </style>
  </defs>
  <g id="Layer_1-2" data-name="Layer 1">
    <g>
      <circle class="cls-1" cx="247.71" cy="247.71" r="247.71"/>
      <path class="cls-3" d="M125.56,96.34c0-7.61,0-15.23,0-22.84h2.13c.08,.2,.1,.53,.24,.59,8.77,3.5,18.07,4.74,27.37,5.01,8.12,.24,16.37-.19,24.39-1.41,11.48-1.75,22.91-3.47,34.56-3.33,.67,0,1.34-.56,2.01-.85,2.13,0,4.25,0,6.38,0,1.03,.3,2.05,.84,3.08,.86,21.85,.51,43.71,.89,65.56,1.47,5.59,.15,11.15,.92,16.73,1.4,10.56,.9,21.11,2.01,31.7,2.59,5.47,.3,11.04-.04,16.49-.66,4.75-.54,9.41-1.87,13.62-2.74,0,8.46,.08,17.06-.02,25.65-.17,13.9-.5,27.8-.64,41.7-.02,2.35-.93,3.07-3.14,2.92-7-.49-13.99-1.05-21-1.36-12.74-.56-25.5-1.42-38.24-1.29-13.57,.13-27.13,1.18-40.69,1.97-9.55,.56-19.09,1.39-28.63,2.05-10.34,.72-20.68,1.71-31.03,2-8.32,.24-16.69-.15-25.01-.66-11.85-.72-23.7-1.59-35.5-2.82-6.04-.63-11.98-2.2-17.68-3.29-.4-3.94-.92-7.22-1.02-10.52-.33-11.26-.48-22.52-.78-33.78-.02-.89-.58-1.76-.88-2.64Zm137.06-9.46l-.02-.99c-4.34,.56-8.76,.79-13.02,1.74-15.47,3.46-28.32,11.63-40.09,21.72-1.3,1.12-3.46,1.76-5.23,1.78-5.89,.09-11.81-.61-17.66-.24-7.21,.45-14.24,2.09-20.31,6.28-2.94,2.03-5.69,4.29-6.65,7.58,4.4-1.15,8.69-2.72,13.12-3.34,11.21-1.58,22.01,.94,32.68,4.02,.87,.25,1.72,.75,2.44,1.3,3.72,2.87,6.49,3.28,10.18,.42,3.46-2.68,7.1-3.51,11.22-2.73,1.89,.36,2.55-.29,2.89-1.97,1.71-8.55,6.95-15.05,13.21-20.8,5.57-5.11,11.48-9.87,17.24-14.79Z"/>
      <path class="cls-1" d="M262.62,86.89c-5.76,4.92-11.67,9.68-17.24,14.79-6.26,5.74-11.5,12.25-13.21,20.8-.34,1.67-1,2.32-2.89,1.97-4.12-.78-7.76,.06-11.22,2.73-3.69,2.86-6.46,2.44-10.18-.42-.72-.55-1.57-1.05-2.44-1.3-10.67-3.08-21.46-5.6-32.68-4.02-4.43,.62-8.72,2.19-13.12,3.34,.96-3.29,3.71-5.56,6.65-7.58,6.07-4.19,13.1-5.83,20.31-6.28,5.86-.37,11.78,.33,17.66,.24,1.77-.03,3.93-.67,5.23-1.78,11.77-10.09,24.61-18.26,40.09-21.72,4.25-.95,8.67-1.18,13.02-1.74l.02,.99Z"/>
      <path class="cls-3" d="M368.21,198.5c-2.88-.75-5.84-1.53-8.8-2.28-16.12-4.08-32.17-8.46-48.39-12.1-10.13-2.28-20.52-3.47-30.8-5.1-11.77-1.86-23.53-3.78-35.32-5.43-6.89-.97-13.84-1.67-20.79-2.14-9.82-.65-19.66-.97-29.5-1.44-4.79-.23-9.59-.52-14.38-.67-8.69-.28-17.38-.73-26.06-.63-7.58,.09-15.17,.8-22.74,1.36-1.31,.1-2.58,.8-4.21,1.33,.34-7.06,.67-13.89,1.02-21.27,3.5,.51,6.97,1.01,10.44,1.52,9.05,1.35,18.06,3.04,27.15,3.98,13.91,1.45,27.93,2.05,41.82,3.66,9.55,1.11,18.76-.84,28.12-1.49,3.25-.23,6.5-.53,9.76-.7,9.71-.49,19.42-1.05,29.13-1.37,10.93-.36,21.87-.65,32.8-.67,9.4-.01,18.79,.41,28.19,.64,8.92,.22,17.85,.42,26.77,.72,1.8,.06,3.58,.54,5.79,.9v41.17Z"/>
      <path class="cls-3" d="M371.01,295.8c-1.15,3.21-2.26,6.43-3.45,9.63-2.26,6.08-6.6,10.6-11.74,14.43-7.46,5.56-16.26,7.14-25.32,8.36-10.96,1.48-21.31-.24-31.35-4.29-9.1-3.67-14.04-10.34-15.03-20.05-.61-5.95,.01-11.87,3.53-17.06,3.68-5.45,9.17-7.39,15.53-6.64,6.08,.72,10.31,4,11.86,10.03,.26,1,.32,2.05,.46,2.99-2.72-1.38-5.02-2.93-7.57-3.74-2.87-.92-5.29,.42-6.92,2.86-2.06,3.1-3.65,6.35-1.86,10.12,2.4,5.05,8.68,7.78,14.6,6.64,10.93-2.1,16.57-10.11,16.5-20.02-.07-9.95-3.5-18.01-12.11-23.12-3.99-2.37-9.02-3.5-13.74-4.14-7.26-.99-14.5,.17-21.12,3.41-4.31,2.11-8.74,4.35-12.34,7.4-7.9,6.69-14.41,14.53-18.68,24.08-3.21,7.17-7.36,13.92-13.28,19.33-9.2,8.42-19.84,12.36-32.69,10.15-8.34-1.43-16.33-3.26-23.31-8.28-7-5.03-10.92-11.56-11.64-20.09-.81-9.59,.76-18.76,5.27-27.23,3.93-7.39,10.23-11.67,19.12-12.01,8.65-.33,16.21,1.44,21.14,9.1,2.96,4.61,3.17,9.88,3.79,15.53-2.07-2.26-3.48-4.48-5.48-5.88-6.47-4.54-14.34-1.44-16.57,6.09-2.74,9.27,4.18,16.13,12.87,18.19,12.39,2.93,22.47-5.74,25.95-15.44,4.57-12.74,3.38-24.72-4.55-35.63-6.74-9.27-16.55-14.7-27.77-17.11-14.95-3.22-29.96-3.85-44.57,1.91-6.81,2.68-13.09,6.07-18.73,10.93-8.17,7.03-13.43,15.68-17.41,25.31,0-15,0-30,0-44.99,.31-1.12,.87-2.24,.88-3.36,.06-10.5-.06-20.99,.07-31.49,.04-3.48,.64-6.95,.99-10.51,1-.05,1.81-.15,2.62-.12,9.58,.44,19.16,.87,28.74,1.37,7.81,.41,15.64,.67,23.41,1.46,11.07,1.14,22.13,2.46,33.12,4.16,10.73,1.66,21.41,3.7,32.04,5.92,16.46,3.44,32.68,7.89,48.25,14.14,10.33,4.15,20.65,8.6,30.25,14.13,9.9,5.69,19.09,12.63,26.77,21.21,7.16,8,12.92,16.8,16.4,26.92,1.15,3.34,2.04,6.76,3.05,10.15v15.23Z"/>
      <path class="cls-2" d="M169.7,436.88c-2.11-.67-4.19-1.43-6.33-1.98-12.07-3.07-22.53-8.81-29.85-18.8-4.53-6.19-6.79-13.44-7.63-21.15-.75-6.99-.18-13.77,1.47-20.53,2.76-11.32,9.56-19.95,19.58-25.78,8.41-4.89,17.59-8.11,27.64-8.52,6.62-.27,9.59,3.79,9.78,7.52,.27,5.26-3.66,9.73-9.16,10.1-7.87,.52-15.08,2.82-20.97,7.96-4.04,3.53-7.27,7.84-8.07,13.95h4.4c7.91,0,15.83,.17,23.73-.06,4.88-.14,8.94,3.53,8.69,9.24-.22,5.08-3.47,8.42-8.59,8.41-8.15-.01-16.29,0-24.44,0-1.15,0-2.3,0-4.75,0,1.98,3.73,3.14,6.92,5.13,9.49,6.1,7.89,14.56,11.65,24.54,12.39,7.7,.57,12.03,8.21,8.02,14.31-.93,1.41-2.63,2.33-3.98,3.47h-9.21Z"/>
      <path class="cls-2" d="M210.34,389.3c.47-10.44,2.95-20.3,9.29-28.44,3.9-5.01,9.44-9.22,15.05-12.46,8.2-4.74,17.31-7.59,27.12-7.28,4.39,.14,6.8,2.22,8.07,7.18,.72,2.81-1.07,7.12-4.17,8.29-4.02,1.52-8.31,2.36-12.48,3.51-11.82,3.25-20.16,10.1-23.38,22.01-2.88,10.66,2.64,22.64,12.19,28.93,6.35,4.19,13.48,4.84,20.53,6.25,4.29,.86,6.76,3.63,7.39,7.71,.57,3.64-.72,6.8-4.33,8.39-1.91,.84-4.17,1.53-6.2,1.38-11.72-.86-23.15-3.36-32.61-10.42-6.78-5.05-11.9-11.85-13.75-20.36-1.06-4.87-1.83-9.79-2.72-14.7Z"/>
      <path class="cls-2" d="M335.01,436.87c-26.88,.1-47.07-21.08-47.17-46.12-.1-25.38,20.7-48.87,52.8-46.14,20.81,1.77,43.31,19.44,42.21,48.26-.9,23.49-20.79,44.45-47.84,44.01Zm.7-17.59c15.2,.68,30.69-12.49,29.99-30.38-.59-14.92-13.9-28.25-30.14-28.04-16.75,.22-29.53,12.81-29.73,29.2-.19,15.89,13.36,29.78,29.88,29.22Z"/>
    </g>
  </g>
</svg>